STARTFONT 2.3
FONT -FontForge-Hanalei-Book-R-Normal--10-100-72-72-P-50-ISO10646-1
SIZE 10 72 72  4
FONTBOUNDINGBOX 14 14 -1 -3
COMMENT "Generated by fontforge, http://fontforge.sourceforge.net"
COMMENT "Copyright (c) 2012 by Brian J. Bonislawsky DBA Astigmatic (AOETI) (astigma@astigmatic.com), with ReservedFont Name "Hanalei""
STARTPROPERTIES 40
FOUNDRY "FontForge"
FAMILY_NAME "Hanalei"
WEIGHT_NAME "Book"
SLANT "R"
SETWIDTH_NAME "Normal"
ADD_STYLE_NAME ""
PIXEL_SIZE 10
POINT_SIZE 100
RESOLUTION_X 72
RESOLUTION_Y 72
SPACING "P"
AVERAGE_WIDTH 50
CHARSET_REGISTRY "ISO10646"
CHARSET_ENCODING "1"
FONTNAME_REGISTRY ""
CHARSET_COLLECTIONS "ISO8859-2 ISO8859-9 ISO8859-4 ISO10646-1"
BITS_PER_PIXEL 4
FONT_NAME "Hanalei-Regular"
FACE_NAME "Hanalei"
COPYRIGHT "Copyright (c) 2012 by Brian J. Bonislawsky DBA Astigmatic (AOETI) (astigma@astigmatic.com), with ReservedFont Name "Hanalei""
FONT_VERSION "1.000"
FONT_ASCENT 8
FONT_DESCENT 2
UNDERLINE_POSITION -1
UNDERLINE_THICKNESS 1
X_HEIGHT 6
CAP_HEIGHT 6
RAW_ASCENT 799
RAW_DESCENT 200
NORM_SPACE 2
RELATIVE_WEIGHT 40
RELATIVE_SETWIDTH 50
SUPERSCRIPT_X 0
SUPERSCRIPT_Y 4
SUPERSCRIPT_SIZE 6
SUBSCRIPT_X 0
SUBSCRIPT_Y 1
SUBSCRIPT_SIZE 6
AVG_LOWERCASE_WIDTH 54
AVG_UPPERCASE_WIDTH 53
ENDPROPERTIES
CHARS 366
STARTCHAR space
ENCODING 32
SWIDTH 200 0
DWIDTH 2 0
BBX 1 1 0 0
BITMAP
00
ENDCHAR
STARTCHAR exclam
ENCODING 33
SWIDTH 257 0
DWIDTH 3 0
BBX 3 8 0 -1
BITMAP
4420
4220
5420
4310
4410
2500
4400
0100
ENDCHAR
STARTCHAR quotedbl
ENCODING 34
SWIDTH 476 0
DWIDTH 5 0
BBX 5 5 0 3
BITMAP
231410
435040
555340
334040
444430
ENDCHAR
STARTCHAR numbersign
ENCODING 35
SWIDTH 1076 0
DWIDTH 11 0
BBX 11 7 0 0
BITMAP
447155446530
406334647340
536754332130
416434557440
538354545430
414334233300
433475333500
ENDCHAR
STARTCHAR dollar
ENCODING 36
SWIDTH 453 0
DWIDTH 5 0
BBX 5 10 0 -2
BITMAP
034100
033500
355130
426300
545400
035230
435630
446100
043000
013000
ENDCHAR
STARTCHAR percent
ENCODING 37
SWIDTH 889 0
DWIDTH 9 0
BBX 9 7 0 0
BITMAP
4442330000
3453330000
4433530000
5365265330
0004434430
0003335330
0003343530
ENDCHAR
STARTCHAR ampersand
ENCODING 38
SWIDTH 627 0
DWIDTH 6 0
BBX 7 9 0 -1
BITMAP
01310000
06566400
04373400
04444000
05442000
41836420
65534420
44454100
10000000
ENDCHAR
STARTCHAR quotesingle
ENCODING 39
SWIDTH 246 0
DWIDTH 2 0
BBX 3 5 0 3
BITMAP
2300
4310
5510
3310
4410
ENDCHAR
STARTCHAR parenleft
ENCODING 40
SWIDTH 387 0
DWIDTH 4 0
BBX 5 9 -1 -1
BITMAP
001410
004140
025400
042300
166000
052500
007220
002240
000430
ENDCHAR
STARTCHAR parenright
ENCODING 41
SWIDTH 386 0
DWIDTH 4 0
BBX 4 9 0 -1
BITMAP
2500
4040
0561
0414
0166
0524
3260
4310
3300
ENDCHAR
STARTCHAR asterisk
ENCODING 42
SWIDTH 517 0
DWIDTH 5 0
BBX 5 6 0 2
BITMAP
002000
005200
545560
163620
145320
030300
ENDCHAR
STARTCHAR plus
ENCODING 43
SWIDTH 458 0
DWIDTH 5 0
BBX 5 5 0 1
BITMAP
014000
153300
425340
355420
035100
ENDCHAR
STARTCHAR comma
ENCODING 44
SWIDTH 228 0
DWIDTH 2 0
BBX 4 4 -1 -2
BITMAP
0130
0441
3140
0300
ENDCHAR
STARTCHAR hyphen
ENCODING 45
SWIDTH 465 0
DWIDTH 5 0
BBX 5 3 0 2
BITMAP
223200
414240
334420
ENDCHAR
STARTCHAR period
ENCODING 46
SWIDTH 202 0
DWIDTH 2 0
BBX 2 3 0 -1
BITMAP
33
44
11
ENDCHAR
STARTCHAR slash
ENCODING 47
SWIDTH 453 0
DWIDTH 5 0
BBX 5 7 0 0
BITMAP
003410
004320
034400
042200
155000
404000
451000
ENDCHAR
STARTCHAR zero
ENCODING 48
SWIDTH 646 0
DWIDTH 6 0
BBX 7 8 0 0
BITMAP
00300000
01372000
07244100
41544400
76106040
51655620
07524100
00551000
ENDCHAR
STARTCHAR one
ENCODING 49
SWIDTH 400 0
DWIDTH 4 0
BBX 5 8 -1 -1
BITMAP
005640
142330
046540
002230
002540
002240
003250
000200
ENDCHAR
STARTCHAR two
ENCODING 50
SWIDTH 502 0
DWIDTH 5 0
BBX 5 8 0 -1
BITMAP
036300
426230
552450
017350
142500
518430
475340
001010
ENDCHAR
STARTCHAR three
ENCODING 51
SWIDTH 456 0
DWIDTH 5 0
BBX 5 8 0 -1
BITMAP
443300
433620
054500
445200
154730
445140
434300
110000
ENDCHAR
STARTCHAR four
ENCODING 52
SWIDTH 514 0
DWIDTH 5 0
BBX 5 8 0 -1
BITMAP
005640
041340
248340
437450
464450
013040
004240
000200
ENDCHAR
STARTCHAR five
ENCODING 53
SWIDTH 500 0
DWIDTH 5 0
BBX 5 7 0 0
BITMAP
356440
345330
564310
413450
133440
445560
545440
ENDCHAR
STARTCHAR six
ENCODING 54
SWIDTH 520 0
DWIDTH 5 0
BBX 6 8 0 -1
BITMAP
055100
044000
256100
304520
537633
444171
562420
012000
ENDCHAR
STARTCHAR seven
ENCODING 55
SWIDTH 423 0
DWIDTH 4 0
BBX 5 7 0 0
BITMAP
546510
546530
016500
031400
053300
044000
245000
ENDCHAR
STARTCHAR eight
ENCODING 56
SWIDTH 527 0
DWIDTH 5 0
BBX 6 8 0 -1
BITMAP
346450
736660
236240
071610
126420
437240
463781
010000
ENDCHAR
STARTCHAR nine
ENCODING 57
SWIDTH 500 0
DWIDTH 5 0
BBX 6 8 0 -1
BITMAP
034540
514551
658340
334220
045400
041300
055000
001000
ENDCHAR
STARTCHAR colon
ENCODING 58
SWIDTH 245 0
DWIDTH 2 0
BBX 2 7 0 -1
BITMAP
01
44
23
00
23
44
01
ENDCHAR
STARTCHAR semicolon
ENCODING 59
SWIDTH 270 0
DWIDTH 3 0
BBX 4 8 -1 -2
BITMAP
0020
0323
0141
0000
0030
0322
1340
0210
ENDCHAR
STARTCHAR less
ENCODING 60
SWIDTH 445 0
DWIDTH 4 0
BBX 5 7 0 0
BITMAP
000100
025410
434410
645000
435410
024410
000200
ENDCHAR
STARTCHAR equal
ENCODING 61
SWIDTH 484 0
DWIDTH 5 0
BBX 5 5 0 1
BITMAP
345430
435340
233210
414240
344420
ENDCHAR
STARTCHAR greater
ENCODING 62
SWIDTH 445 0
DWIDTH 4 0
BBX 5 7 0 0
BITMAP
010000
434000
343410
026520
352520
434000
020000
ENDCHAR
STARTCHAR question
ENCODING 63
SWIDTH 455 0
DWIDTH 5 0
BBX 5 8 0 -1
BITMAP
445100
433240
035630
163200
234000
151000
323000
020000
ENDCHAR
STARTCHAR at
ENCODING 64
SWIDTH 812 0
DWIDTH 8 0
BBX 8 9 0 -1
BITMAP
03222110
33244560
46567731
55444633
34333354
45635643
44534455
37341000
00230000
ENDCHAR
STARTCHAR A
ENCODING 65
SWIDTH 507 0
DWIDTH 5 0
BBX 6 7 0 0
BITMAP
055300
044400
255510
307250
538523
444561
550550
ENDCHAR
STARTCHAR B
ENCODING 66
SWIDTH 533 0
DWIDTH 5 0
BBX 6 9 0 -1
BITMAP
031000
533620
445423
538471
424640
538341
557372
714410
040000
ENDCHAR
STARTCHAR C
ENCODING 67
SWIDTH 515 0
DWIDTH 5 0
BBX 6 9 0 -1
BITMAP
010000
244650
245551
434000
404000
533000
445451
564541
020000
ENDCHAR
STARTCHAR D
ENCODING 68
SWIDTH 520 0
DWIDTH 5 0
BBX 6 9 0 -1
BITMAP
012000
464100
341610
537341
422653
538341
322510
446100
011000
ENDCHAR
STARTCHAR E
ENCODING 69
SWIDTH 490 0
DWIDTH 5 0
BBX 5 7 0 0
BITMAP
447450
316450
536300
422400
536300
327440
446440
ENDCHAR
STARTCHAR F
ENCODING 70
SWIDTH 475 0
DWIDTH 5 0
BBX 5 7 0 0
BITMAP
447450
316450
536300
422400
536300
322000
442000
ENDCHAR
STARTCHAR G
ENCODING 71
SWIDTH 557 0
DWIDTH 6 0
BBX 6 9 0 -1
BITMAP
010000
244650
245551
434010
404433
533433
445704
564733
020000
ENDCHAR
STARTCHAR H
ENCODING 72
SWIDTH 611 0
DWIDTH 6 0
BBX 7 7 0 0
BITMAP
44333400
41340400
53343400
42244600
53824510
32662400
44244300
ENDCHAR
STARTCHAR I
ENCODING 73
SWIDTH 266 0
DWIDTH 3 0
BBX 3 7 0 0
BITMAP
4430
4130
5330
4220
5330
3220
4420
ENDCHAR
STARTCHAR J
ENCODING 74
SWIDTH 484 0
DWIDTH 5 0
BBX 6 8 -1 -1
BITMAP
000344
000303
000434
043404
143634
035614
004174
000400
ENDCHAR
STARTCHAR K
ENCODING 75
SWIDTH 541 0
DWIDTH 5 0
BBX 6 7 0 0
BITMAP
443152
314514
537340
423610
53A440
323440
442441
ENDCHAR
STARTCHAR L
ENCODING 76
SWIDTH 467 0
DWIDTH 5 0
BBX 5 7 0 0
BITMAP
443000
413000
533000
422000
533000
327340
447450
ENDCHAR
STARTCHAR M
ENCODING 77
SWIDTH 733 0
DWIDTH 7 0
BBX 8 7 0 0
BITMAP
06605520
13434440
43575540
40760640
53745850
44218431
55065444
ENDCHAR
STARTCHAR N
ENCODING 78
SWIDTH 598 0
DWIDTH 6 0
BBX 6 7 0 0
BITMAP
447254
416323
535844
425524
538364
423344
542574
ENDCHAR
STARTCHAR O
ENCODING 79
SWIDTH 612 0
DWIDTH 6 0
BBX 6 9 0 -1
BITMAP
010000
244663
245554
434344
404134
533065
444648
564557
020000
ENDCHAR
STARTCHAR P
ENCODING 80
SWIDTH 513 0
DWIDTH 5 0
BBX 6 9 0 -1
BITMAP
030000
534510
455333
536661
426340
536200
423000
533000
010000
ENDCHAR
STARTCHAR Q
ENCODING 81
SWIDTH 612 0
DWIDTH 6 0
BBX 6 10 0 -2
BITMAP
010000
244663
245554
434344
404134
533065
444648
564657
024310
002300
ENDCHAR
STARTCHAR R
ENCODING 82
SWIDTH 532 0
DWIDTH 5 0
BBX 6 9 0 -1
BITMAP
020000
444500
454333
535661
429540
538240
423631
423433
120010
ENDCHAR
STARTCHAR S
ENCODING 83
SWIDTH 442 0
DWIDTH 4 0
BBX 5 9 0 -1
BITMAP
000100
576330
535410
334000
052200
025400
447130
547510
100000
ENDCHAR
STARTCHAR T
ENCODING 84
SWIDTH 453 0
DWIDTH 5 0
BBX 5 7 0 0
BITMAP
536440
555430
053300
042100
054300
042100
054200
ENDCHAR
STARTCHAR U
ENCODING 85
SWIDTH 583 0
DWIDTH 6 0
BBX 6 8 0 -1
BITMAP
344443
403313
534534
412304
542444
446455
555585
030000
ENDCHAR
STARTCHAR V
ENCODING 86
SWIDTH 506 0
DWIDTH 5 0
BBX 5 8 0 -1
BITMAP
440340
440440
534540
407130
156330
044300
046500
011000
ENDCHAR
STARTCHAR W
ENCODING 87
SWIDTH 735 0
DWIDTH 7 0
BBX 8 8 0 -1
BITMAP
44032441
44233431
53765650
40732340
25667440
04337040
06546230
01100200
ENDCHAR
STARTCHAR X
ENCODING 88
SWIDTH 483 0
DWIDTH 5 0
BBX 5 7 0 0
BITMAP
350530
425140
266500
061500
155500
416140
550540
ENDCHAR
STARTCHAR Y
ENCODING 89
SWIDTH 484 0
DWIDTH 5 0
BBX 6 7 -1 0
BITMAP
043045
133334
034634
004440
004440
004310
005500
ENDCHAR
STARTCHAR Z
ENCODING 90
SWIDTH 458 0
DWIDTH 5 0
BBX 5 7 0 0
BITMAP
336430
346460
025500
051300
345000
427420
565420
ENDCHAR
STARTCHAR bracketleft
ENCODING 91
SWIDTH 420 0
DWIDTH 4 0
BBX 5 9 0 -1
BITMAP
033400
453510
423000
642000
431000
542000
331000
444510
153400
ENDCHAR
STARTCHAR backslash
ENCODING 92
SWIDTH 453 0
DWIDTH 5 0
BBX 5 7 0 0
BITMAP
450000
413000
246000
042200
033500
004320
004420
ENDCHAR
STARTCHAR bracketright
ENCODING 93
SWIDTH 420 0
DWIDTH 4 0
BBX 4 9 0 -1
BITMAP
4330
5255
0144
0056
0043
0056
0043
5354
3342
ENDCHAR
STARTCHAR asciicircum
ENCODING 94
SWIDTH 353 0
DWIDTH 4 0
BBX 4 3 0 4
BITMAP
0420
3450
4452
ENDCHAR
STARTCHAR underscore
ENCODING 95
SWIDTH 499 0
DWIDTH 5 0
BBX 5 3 0 -3
BITMAP
123210
414240
244320
ENDCHAR
STARTCHAR grave
ENCODING 96
SWIDTH 183 0
DWIDTH 2 0
BBX 2 3 0 7
BITMAP
43
44
13
ENDCHAR
STARTCHAR a
ENCODING 97
SWIDTH 507 0
DWIDTH 5 0
BBX 6 7 0 0
BITMAP
055300
044400
255510
307250
538523
444561
550550
ENDCHAR
STARTCHAR b
ENCODING 98
SWIDTH 533 0
DWIDTH 5 0
BBX 6 9 0 -1
BITMAP
031000
533620
445423
538471
424640
538341
557372
714410
040000
ENDCHAR
STARTCHAR c
ENCODING 99
SWIDTH 515 0
DWIDTH 5 0
BBX 6 9 0 -1
BITMAP
010000
244650
245551
434000
404000
533000
445451
564541
020000
ENDCHAR
STARTCHAR d
ENCODING 100
SWIDTH 520 0
DWIDTH 5 0
BBX 6 9 0 -1
BITMAP
012000
464100
341610
537341
422653
538341
322510
446100
011000
ENDCHAR
STARTCHAR e
ENCODING 101
SWIDTH 490 0
DWIDTH 5 0
BBX 5 7 0 0
BITMAP
447450
316450
536300
422400
536300
327440
446440
ENDCHAR
STARTCHAR f
ENCODING 102
SWIDTH 475 0
DWIDTH 5 0
BBX 5 7 0 0
BITMAP
447450
316450
536300
422400
536300
322000
442000
ENDCHAR
STARTCHAR g
ENCODING 103
SWIDTH 557 0
DWIDTH 6 0
BBX 6 9 0 -1
BITMAP
010000
244650
245551
434010
404433
533433
445704
564733
020000
ENDCHAR
STARTCHAR h
ENCODING 104
SWIDTH 611 0
DWIDTH 6 0
BBX 7 7 0 0
BITMAP
44333400
41340400
53343400
42244600
53824510
32662400
44244300
ENDCHAR
STARTCHAR i
ENCODING 105
SWIDTH 266 0
DWIDTH 3 0
BBX 3 7 0 0
BITMAP
4430
4130
5330
4220
5330
3220
4420
ENDCHAR
STARTCHAR j
ENCODING 106
SWIDTH 482 0
DWIDTH 5 0
BBX 6 8 -1 -1
BITMAP
000344
000303
000434
043404
143634
035614
004174
000400
ENDCHAR
STARTCHAR k
ENCODING 107
SWIDTH 541 0
DWIDTH 5 0
BBX 6 7 0 0
BITMAP
443152
314514
537340
423610
53A440
323440
442441
ENDCHAR
STARTCHAR l
ENCODING 108
SWIDTH 467 0
DWIDTH 5 0
BBX 5 7 0 0
BITMAP
443000
413000
533000
422000
533000
327340
447450
ENDCHAR
STARTCHAR m
ENCODING 109
SWIDTH 733 0
DWIDTH 7 0
BBX 8 7 0 0
BITMAP
06605520
13434440
43575540
40760640
53745850
44218431
55065444
ENDCHAR
STARTCHAR n
ENCODING 110
SWIDTH 598 0
DWIDTH 6 0
BBX 6 7 0 0
BITMAP
447254
416323
535844
425524
538364
423344
542574
ENDCHAR
STARTCHAR o
ENCODING 111
SWIDTH 612 0
DWIDTH 6 0
BBX 6 9 0 -1
BITMAP
010000
244663
245554
434344
404134
533065
444648
564557
020000
ENDCHAR
STARTCHAR p
ENCODING 112
SWIDTH 513 0
DWIDTH 5 0
BBX 6 9 0 -1
BITMAP
030000
534510
455333
536661
426340
536200
423000
533000
010000
ENDCHAR
STARTCHAR q
ENCODING 113
SWIDTH 612 0
DWIDTH 6 0
BBX 6 10 0 -2
BITMAP
010000
244663
245554
434344
404134
533065
444648
564657
024310
002300
ENDCHAR
STARTCHAR r
ENCODING 114
SWIDTH 532 0
DWIDTH 5 0
BBX 6 9 0 -1
BITMAP
020000
444500
454333
535661
429540
538240
423631
423433
120010
ENDCHAR
STARTCHAR s
ENCODING 115
SWIDTH 442 0
DWIDTH 4 0
BBX 5 9 0 -1
BITMAP
000100
576330
535410
334000
052200
025400
447130
547510
100000
ENDCHAR
STARTCHAR t
ENCODING 116
SWIDTH 453 0
DWIDTH 5 0
BBX 5 7 0 0
BITMAP
536440
555430
053300
042100
054300
042100
054200
ENDCHAR
STARTCHAR u
ENCODING 117
SWIDTH 583 0
DWIDTH 6 0
BBX 6 8 0 -1
BITMAP
344443
403313
534534
412304
542444
446455
555585
030000
ENDCHAR
STARTCHAR v
ENCODING 118
SWIDTH 506 0
DWIDTH 5 0
BBX 5 8 0 -1
BITMAP
440340
440440
534540
407130
156330
044300
046500
011000
ENDCHAR
STARTCHAR w
ENCODING 119
SWIDTH 735 0
DWIDTH 7 0
BBX 8 8 0 -1
BITMAP
44032441
44233431
53765650
40732340
25667440
04337040
06546230
01100200
ENDCHAR
STARTCHAR x
ENCODING 120
SWIDTH 483 0
DWIDTH 5 0
BBX 5 7 0 0
BITMAP
350530
425140
266500
061500
155500
416140
550540
ENDCHAR
STARTCHAR y
ENCODING 121
SWIDTH 484 0
DWIDTH 5 0
BBX 6 7 -1 0
BITMAP
043045
133334
034634
004440
004440
004310
005500
ENDCHAR
STARTCHAR z
ENCODING 122
SWIDTH 458 0
DWIDTH 5 0
BBX 5 7 0 0
BITMAP
336430
346460
025500
051300
345000
427420
565420
ENDCHAR
STARTCHAR braceleft
ENCODING 123
SWIDTH 473 0
DWIDTH 5 0
BBX 5 9 0 -1
BITMAP
023330
054240
053400
454400
424600
263400
044100
134340
025330
ENDCHAR
STARTCHAR bar
ENCODING 124
SWIDTH 263 0
DWIDTH 3 0
BBX 3 9 0 -1
BITMAP
3410
4030
5230
5230
4220
5330
4220
4130
2400
ENDCHAR
STARTCHAR braceright
ENCODING 125
SWIDTH 473 0
DWIDTH 5 0
BBX 5 9 0 -1
BITMAP
334100
532500
044400
055430
091240
046310
042400
534500
335100
ENDCHAR
STARTCHAR asciitilde
ENCODING 126
SWIDTH 456 0
DWIDTH 5 0
BBX 5 3 0 2
BITMAP
157530
454500
214300
ENDCHAR
STARTCHAR nonbreakingspace
ENCODING 160
SWIDTH 200 0
DWIDTH 2 0
BBX 1 1 0 0
BITMAP
00
ENDCHAR
STARTCHAR exclamdown
ENCODING 161
SWIDTH 259 0
DWIDTH 3 0
BBX 3 8 0 -1
BITMAP
3510
2410
3410
3210
4530
4210
5320
0200
ENDCHAR
STARTCHAR cent
ENCODING 162
SWIDTH 480 0
DWIDTH 5 0
BBX 5 10 0 -2
BITMAP
024300
031610
246040
634410
560000
343000
564430
044530
030400
003000
ENDCHAR
STARTCHAR sterling
ENCODING 163
SWIDTH 594 0
DWIDTH 6 0
BBX 6 7 0 0
BITMAP
015430
055131
163640
451440
363620
042734
054744
ENDCHAR
STARTCHAR currency
ENCODING 164
SWIDTH 640 0
DWIDTH 6 0
BBX 7 7 0 0
BITMAP
23121400
42655310
16454600
41645400
37254500
44466410
01000100
ENDCHAR
STARTCHAR yen
ENCODING 165
SWIDTH 575 0
DWIDTH 6 0
BBX 6 7 0 0
BITMAP
340242
414413
064650
076460
310340
074730
034300
ENDCHAR
STARTCHAR brokenbar
ENCODING 166
SWIDTH 258 0
DWIDTH 3 0
BBX 3 9 0 -1
BITMAP
4410
4310
4320
4220
1400
4420
5420
3210
4420
ENDCHAR
STARTCHAR section
ENCODING 167
SWIDTH 474 0
DWIDTH 5 0
BBX 5 9 0 -1
BITMAP
000100
436330
547420
343740
327220
656520
366440
435320
110000
ENDCHAR
STARTCHAR dieresis
ENCODING 168
SWIDTH 351 0
DWIDTH 4 0
BBX 4 2 0 7
BITMAP
5554
3241
ENDCHAR
STARTCHAR copyright
ENCODING 169
SWIDTH 719 0
DWIDTH 7 0
BBX 7 9 0 -1
BITMAP
03222110
51434660
36465530
55655550
33330330
55575550
34445640
57535350
00000100
ENDCHAR
STARTCHAR ordfeminine
ENCODING 170
SWIDTH 455 0
DWIDTH 5 0
BBX 5 7 0 0
BITMAP
075400
142400
436600
636130
764340
243500
333500
ENDCHAR
STARTCHAR guillemotleft
ENCODING 171
SWIDTH 689 0
DWIDTH 7 0
BBX 7 5 0 1
BITMAP
02410430
32353240
65344500
33344140
01400420
ENDCHAR
STARTCHAR logicalnot
ENCODING 172
SWIDTH 591 0
DWIDTH 6 0
BBX 6 5 0 0
BITMAP
111010
435473
444433
000033
000143
ENDCHAR
STARTCHAR uni00AD
ENCODING 173
SWIDTH 465 0
DWIDTH 5 0
BBX 5 3 0 2
BITMAP
223200
414240
334420
ENDCHAR
STARTCHAR registered
ENCODING 174
SWIDTH 719 0
DWIDTH 7 0
BBX 7 9 0 -1
BITMAP
03222110
51434660
36343530
55565550
33342330
55440550
34544640
57535350
00000100
ENDCHAR
STARTCHAR macron
ENCODING 175
SWIDTH 263 0
DWIDTH 3 0
BBX 3 2 0 7
BITMAP
5330
4320
ENDCHAR
STARTCHAR degree
ENCODING 176
SWIDTH 333 0
DWIDTH 3 0
BBX 4 4 0 3
BITMAP
1530
4631
6670
0010
ENDCHAR
STARTCHAR plusminus
ENCODING 177
SWIDTH 464 0
DWIDTH 5 0
BBX 5 8 0 -2
BITMAP
014000
152400
425340
355420
035100
435420
435340
100000
ENDCHAR
STARTCHAR twosuperior
ENCODING 178
SWIDTH 324 0
DWIDTH 3 0
BBX 3 4 0 3
BITMAP
4340
2550
3340
5540
ENDCHAR
STARTCHAR threesuperior
ENCODING 179
SWIDTH 332 0
DWIDTH 3 0
BBX 3 4 0 3
BITMAP
4350
3650
2720
3460
ENDCHAR
STARTCHAR acute
ENCODING 180
SWIDTH 202 0
DWIDTH 2 0
BBX 2 3 0 7
BITMAP
14
44
41
ENDCHAR
STARTCHAR mu
ENCODING 181
SWIDTH 582 0
DWIDTH 6 0
BBX 6 9 0 -2
BITMAP
343442
404322
534534
404403
403444
538454
426574
413020
130000
ENDCHAR
STARTCHAR paragraph
ENCODING 182
SWIDTH 556 0
DWIDTH 6 0
BBX 6 9 0 -1
BITMAP
000200
035271
515560
556651
244640
014651
000540
000540
000120
ENDCHAR
STARTCHAR periodcentered
ENCODING 183
SWIDTH 215 0
DWIDTH 2 0
BBX 2 3 0 2
BITMAP
23
44
11
ENDCHAR
STARTCHAR cedilla
ENCODING 184
SWIDTH 237 0
DWIDTH 2 0
BBX 3 4 0 -3
BITMAP
0430
1430
6720
1000
ENDCHAR
STARTCHAR onesuperior
ENCODING 185
SWIDTH 286 0
DWIDTH 3 0
BBX 3 4 0 3
BITMAP
1330
4440
2330
0430
ENDCHAR
STARTCHAR ordmasculine
ENCODING 186
SWIDTH 476 0
DWIDTH 5 0
BBX 5 7 0 0
BITMAP
446530
646440
330330
556450
545330
243400
233500
ENDCHAR
STARTCHAR guillemotright
ENCODING 187
SWIDTH 689 0
DWIDTH 7 0
BBX 7 5 0 1
BITMAP
34024100
41352330
05444550
41442320
24014100
ENDCHAR
STARTCHAR onequarter
ENCODING 188
SWIDTH 790 0
DWIDTH 8 0
BBX 8 7 0 0
BITMAP
13323000
43433000
13354000
03433141
00234254
00334435
00240364
ENDCHAR
STARTCHAR onehalf
ENCODING 189
SWIDTH 771 0
DWIDTH 8 0
BBX 8 7 0 0
BITMAP
13323000
43433000
13354000
03435331
00235442
00331351
00242633
ENDCHAR
STARTCHAR threequarters
ENCODING 190
SWIDTH 817 0
DWIDTH 8 0
BBX 8 7 0 0
BITMAP
43504200
37522200
27244000
34633043
00054344
00123536
00132256
ENDCHAR
STARTCHAR questiondown
ENCODING 191
SWIDTH 455 0
DWIDTH 5 0
BBX 5 8 0 -1
BITMAP
004400
003300
005500
034500
744200
414420
144420
000100
ENDCHAR
STARTCHAR Agrave
ENCODING 192
SWIDTH 507 0
DWIDTH 5 0
BBX 6 10 0 0
BITMAP
034000
034000
004000
055300
044400
255510
307250
538523
444561
550550
ENDCHAR
STARTCHAR Aacute
ENCODING 193
SWIDTH 507 0
DWIDTH 5 0
BBX 6 10 0 0
BITMAP
000410
003410
002200
055300
044400
255510
307250
538523
444561
550550
ENDCHAR
STARTCHAR Acircumflex
ENCODING 194
SWIDTH 507 0
DWIDTH 5 0
BBX 6 10 0 0
BITMAP
026400
046310
031400
055300
044400
255510
307250
538523
444561
550550
ENDCHAR
STARTCHAR Atilde
ENCODING 195
SWIDTH 507 0
DWIDTH 5 0
BBX 6 10 0 0
BITMAP
047440
235630
132400
055300
044400
255510
307250
538523
444561
550550
ENDCHAR
STARTCHAR Adieresis
ENCODING 196
SWIDTH 507 0
DWIDTH 5 0
BBX 6 9 0 0
BITMAP
156430
042410
055300
044400
255510
307250
538523
444561
550550
ENDCHAR
STARTCHAR Aring
ENCODING 197
SWIDTH 507 0
DWIDTH 5 0
BBX 6 11 0 0
BITMAP
014200
045300
055610
023300
055300
044400
255510
307250
538523
444561
550550
ENDCHAR
STARTCHAR AE
ENCODING 198
SWIDTH 797 0
DWIDTH 8 0
BBX 9 7 -1 0
BITMAP
0003647550
0004326450
0044836300
0043503400
0445636400
1434618440
1450447450
ENDCHAR
STARTCHAR Ccedilla
ENCODING 199
SWIDTH 515 0
DWIDTH 5 0
BBX 6 11 0 -3
BITMAP
010000
244650
245551
434000
404000
533000
445451
565541
025300
045500
011000
ENDCHAR
STARTCHAR Egrave
ENCODING 200
SWIDTH 490 0
DWIDTH 5 0
BBX 5 10 0 0
BITMAP
034000
034100
004000
447450
316450
536300
422400
536300
327440
446440
ENDCHAR
STARTCHAR Eacute
ENCODING 201
SWIDTH 490 0
DWIDTH 5 0
BBX 5 10 0 0
BITMAP
001400
004400
004100
447450
316450
536300
422400
536300
327440
446440
ENDCHAR
STARTCHAR Ecircumflex
ENCODING 202
SWIDTH 490 0
DWIDTH 5 0
BBX 5 10 0 0
BITMAP
026400
046310
031400
447450
316450
536300
422400
536300
327440
446440
ENDCHAR
STARTCHAR Edieresis
ENCODING 203
SWIDTH 490 0
DWIDTH 5 0
BBX 5 9 0 0
BITMAP
156430
042410
447450
316450
536300
422400
536300
327440
446440
ENDCHAR
STARTCHAR Igrave
ENCODING 204
SWIDTH 266 0
DWIDTH 3 0
BBX 3 10 0 0
BITMAP
4200
4400
2300
4430
4130
5330
4220
5330
3220
4420
ENDCHAR
STARTCHAR Iacute
ENCODING 205
SWIDTH 266 0
DWIDTH 3 0
BBX 3 10 0 0
BITMAP
0240
0440
0410
4430
4130
5330
4220
5330
3220
4420
ENDCHAR
STARTCHAR Icircumflex
ENCODING 206
SWIDTH 266 0
DWIDTH 3 0
BBX 3 10 0 0
BITMAP
3730
4630
4130
4430
4130
5330
4220
5330
3220
4420
ENDCHAR
STARTCHAR Idieresis
ENCODING 207
SWIDTH 266 0
DWIDTH 3 0
BBX 5 9 -1 0
BITMAP
346510
142300
044300
041300
053300
042200
053300
032200
044200
ENDCHAR
STARTCHAR Eth
ENCODING 208
SWIDTH 669 0
DWIDTH 7 0
BBX 8 9 -1 -1
BITMAP
00003000
00092400
00054250
03486524
22035266
03486623
00144240
00246400
00002000
ENDCHAR
STARTCHAR Ntilde
ENCODING 209
SWIDTH 598 0
DWIDTH 6 0
BBX 6 10 0 0
BITMAP
005753
044460
022330
447254
416323
535844
425524
538364
423344
542574
ENDCHAR
STARTCHAR Ograve
ENCODING 210
SWIDTH 612 0
DWIDTH 6 0
BBX 6 11 0 -1
BITMAP
004300
004400
011300
244663
245554
434344
404134
533065
444648
564557
020000
ENDCHAR
STARTCHAR Oacute
ENCODING 211
SWIDTH 612 0
DWIDTH 6 0
BBX 6 11 0 -1
BITMAP
000330
001440
011400
244663
245554
434344
404134
533065
444648
564557
020000
ENDCHAR
STARTCHAR Ocircumflex
ENCODING 212
SWIDTH 612 0
DWIDTH 6 0
BBX 6 11 0 -1
BITMAP
004710
023530
013220
244663
245554
434344
404134
533065
444648
564557
020000
ENDCHAR
STARTCHAR Otilde
ENCODING 213
SWIDTH 612 0
DWIDTH 6 0
BBX 6 11 0 -1
BITMAP
005754
044461
032340
244663
245554
434344
404134
533065
444648
564557
020000
ENDCHAR
STARTCHAR Odieresis
ENCODING 214
SWIDTH 612 0
DWIDTH 6 0
BBX 6 10 0 -1
BITMAP
055550
033320
244663
245554
434344
404134
533065
444648
564557
020000
ENDCHAR
STARTCHAR multiply
ENCODING 215
SWIDTH 421 0
DWIDTH 4 0
BBX 4 5 0 1
BITMAP
0100
4455
3265
4525
2333
ENDCHAR
STARTCHAR Oslash
ENCODING 216
SWIDTH 612 0
DWIDTH 6 0
BBX 6 9 0 -1
BITMAP
010000
244653
245615
436554
407234
565465
443648
606557
041000
ENDCHAR
STARTCHAR Ugrave
ENCODING 217
SWIDTH 583 0
DWIDTH 6 0
BBX 6 11 0 -1
BITMAP
015000
013300
002200
344443
403313
534534
412304
542444
446455
555585
030000
ENDCHAR
STARTCHAR Uacute
ENCODING 218
SWIDTH 583 0
DWIDTH 6 0
BBX 6 11 0 -1
BITMAP
000410
003420
002200
344443
403313
534534
412304
542444
446455
555585
030000
ENDCHAR
STARTCHAR Ucircumflex
ENCODING 219
SWIDTH 583 0
DWIDTH 6 0
BBX 6 11 0 -1
BITMAP
005700
044320
022310
344443
403313
534534
412304
542444
446455
555585
030000
ENDCHAR
STARTCHAR Udieresis
ENCODING 220
SWIDTH 583 0
DWIDTH 6 0
BBX 6 10 0 -1
BITMAP
055550
033320
344443
403313
534534
412304
542444
446455
555585
030000
ENDCHAR
STARTCHAR Yacute
ENCODING 221
SWIDTH 484 0
DWIDTH 5 0
BBX 6 9 -1 0
BITMAP
000230
000440
043455
133334
034634
004440
004440
004310
005500
ENDCHAR
STARTCHAR Thorn
ENCODING 222
SWIDTH 520 0
DWIDTH 5 0
BBX 6 8 0 -1
BITMAP
463000
544500
554333
414762
537340
425300
534000
010000
ENDCHAR
STARTCHAR germandbls
ENCODING 223
SWIDTH 884 0
DWIDTH 9 0
BBX 9 9 0 -1
BITMAP
0001000010
5763587340
5354616430
3340055100
0522041400
0254006420
4471647240
5475535630
1000010000
ENDCHAR
STARTCHAR agrave
ENCODING 224
SWIDTH 507 0
DWIDTH 5 0
BBX 6 10 0 0
BITMAP
034000
034000
004000
055300
044400
255510
307250
538523
444561
550550
ENDCHAR
STARTCHAR aacute
ENCODING 225
SWIDTH 507 0
DWIDTH 5 0
BBX 6 10 0 0
BITMAP
000410
003410
002200
055300
044400
255510
307250
538523
444561
550550
ENDCHAR
STARTCHAR acircumflex
ENCODING 226
SWIDTH 507 0
DWIDTH 5 0
BBX 6 10 0 0
BITMAP
026400
046310
031400
055300
044400
255510
307250
538523
444561
550550
ENDCHAR
STARTCHAR atilde
ENCODING 227
SWIDTH 507 0
DWIDTH 5 0
BBX 6 10 0 0
BITMAP
047440
235630
132400
055300
044400
255510
307250
538523
444561
550550
ENDCHAR
STARTCHAR adieresis
ENCODING 228
SWIDTH 507 0
DWIDTH 5 0
BBX 6 9 0 0
BITMAP
156430
042410
055300
044400
255510
307250
538523
444561
550550
ENDCHAR
STARTCHAR aring
ENCODING 229
SWIDTH 507 0
DWIDTH 5 0
BBX 6 11 0 0
BITMAP
014200
045300
055610
023300
055300
044400
255510
307250
538523
444561
550550
ENDCHAR
STARTCHAR ae
ENCODING 230
SWIDTH 797 0
DWIDTH 8 0
BBX 9 7 -1 0
BITMAP
0003647550
0004326450
0044836300
0043503400
0445636400
1434618440
1450447450
ENDCHAR
STARTCHAR ccedilla
ENCODING 231
SWIDTH 515 0
DWIDTH 5 0
BBX 6 11 0 -3
BITMAP
010000
244650
245551
434000
404000
533000
445451
565541
025300
045500
011000
ENDCHAR
STARTCHAR egrave
ENCODING 232
SWIDTH 490 0
DWIDTH 5 0
BBX 5 10 0 0
BITMAP
034000
034100
004000
447450
316450
536300
422400
536300
327440
446440
ENDCHAR
STARTCHAR eacute
ENCODING 233
SWIDTH 490 0
DWIDTH 5 0
BBX 5 10 0 0
BITMAP
001400
004400
004100
447450
316450
536300
422400
536300
327440
446440
ENDCHAR
STARTCHAR ecircumflex
ENCODING 234
SWIDTH 490 0
DWIDTH 5 0
BBX 5 10 0 0
BITMAP
026400
046310
031400
447450
316450
536300
422400
536300
327440
446440
ENDCHAR
STARTCHAR edieresis
ENCODING 235
SWIDTH 490 0
DWIDTH 5 0
BBX 5 9 0 0
BITMAP
156430
042410
447450
316450
536300
422400
536300
327440
446440
ENDCHAR
STARTCHAR igrave
ENCODING 236
SWIDTH 266 0
DWIDTH 3 0
BBX 3 10 0 0
BITMAP
4200
4400
2300
4430
4130
5330
4220
5330
3220
4420
ENDCHAR
STARTCHAR iacute
ENCODING 237
SWIDTH 266 0
DWIDTH 3 0
BBX 3 10 0 0
BITMAP
0240
0440
0410
4430
4130
5330
4220
5330
3220
4420
ENDCHAR
STARTCHAR icircumflex
ENCODING 238
SWIDTH 266 0
DWIDTH 3 0
BBX 3 10 0 0
BITMAP
3730
4630
4130
4430
4130
5330
4220
5330
3220
4420
ENDCHAR
STARTCHAR idieresis
ENCODING 239
SWIDTH 266 0
DWIDTH 3 0
BBX 5 9 -1 0
BITMAP
346510
142300
044300
041300
053300
042200
053300
032200
044200
ENDCHAR
STARTCHAR eth
ENCODING 240
SWIDTH 669 0
DWIDTH 7 0
BBX 8 9 -1 -1
BITMAP
00003000
00092400
00054250
03486524
22035266
03486623
00144240
00246400
00002000
ENDCHAR
STARTCHAR ntilde
ENCODING 241
SWIDTH 598 0
DWIDTH 6 0
BBX 6 10 0 0
BITMAP
005753
044460
022330
447254
416323
535844
425524
538364
423344
542574
ENDCHAR
STARTCHAR ograve
ENCODING 242
SWIDTH 612 0
DWIDTH 6 0
BBX 6 11 0 -1
BITMAP
004300
004400
011300
244663
245554
434344
404134
533065
444648
564557
020000
ENDCHAR
STARTCHAR oacute
ENCODING 243
SWIDTH 612 0
DWIDTH 6 0
BBX 6 11 0 -1
BITMAP
000330
001440
011400
244663
245554
434344
404134
533065
444648
564557
020000
ENDCHAR
STARTCHAR ocircumflex
ENCODING 244
SWIDTH 612 0
DWIDTH 6 0
BBX 6 11 0 -1
BITMAP
004710
023530
013220
244663
245554
434344
404134
533065
444648
564557
020000
ENDCHAR
STARTCHAR otilde
ENCODING 245
SWIDTH 612 0
DWIDTH 6 0
BBX 6 11 0 -1
BITMAP
005754
044461
032340
244663
245554
434344
404134
533065
444648
564557
020000
ENDCHAR
STARTCHAR odieresis
ENCODING 246
SWIDTH 612 0
DWIDTH 6 0
BBX 6 10 0 -1
BITMAP
055550
033320
244663
245554
434344
404134
533065
444648
564557
020000
ENDCHAR
STARTCHAR divide
ENCODING 247
SWIDTH 457 0
DWIDTH 5 0
BBX 5 7 0 0
BITMAP
001000
044000
246200
414240
345410
044000
024000
ENDCHAR
STARTCHAR oslash
ENCODING 248
SWIDTH 612 0
DWIDTH 6 0
BBX 6 9 0 -1
BITMAP
010000
244653
245615
436554
407234
565465
443648
606557
041000
ENDCHAR
STARTCHAR ugrave
ENCODING 249
SWIDTH 583 0
DWIDTH 6 0
BBX 6 11 0 -1
BITMAP
015000
013300
002200
344443
403313
534534
412304
542444
446455
555585
030000
ENDCHAR
STARTCHAR uacute
ENCODING 250
SWIDTH 583 0
DWIDTH 6 0
BBX 6 11 0 -1
BITMAP
000410
003420
002200
344443
403313
534534
412304
542444
446455
555585
030000
ENDCHAR
STARTCHAR ucircumflex
ENCODING 251
SWIDTH 583 0
DWIDTH 6 0
BBX 6 11 0 -1
BITMAP
005700
044320
022310
344443
403313
534534
412304
542444
446455
555585
030000
ENDCHAR
STARTCHAR udieresis
ENCODING 252
SWIDTH 583 0
DWIDTH 6 0
BBX 6 10 0 -1
BITMAP
055550
033320
344443
403313
534534
412304
542444
446455
555585
030000
ENDCHAR
STARTCHAR yacute
ENCODING 253
SWIDTH 484 0
DWIDTH 5 0
BBX 6 9 -1 0
BITMAP
000230
000440
043455
133334
034634
004440
004440
004310
005500
ENDCHAR
STARTCHAR thorn
ENCODING 254
SWIDTH 520 0
DWIDTH 5 0
BBX 6 8 0 -1
BITMAP
463000
544500
554333
414762
537340
425300
534000
010000
ENDCHAR
STARTCHAR ydieresis
ENCODING 255
SWIDTH 484 0
DWIDTH 5 0
BBX 6 9 -1 0
BITMAP
024751
014230
043045
133334
034634
004440
004440
004310
005500
ENDCHAR
STARTCHAR Amacron
ENCODING 256
SWIDTH 507 0
DWIDTH 5 0
BBX 6 9 0 0
BITMAP
043400
033300
055300
044400
255510
307250
538523
444561
550550
ENDCHAR
STARTCHAR amacron
ENCODING 257
SWIDTH 507 0
DWIDTH 5 0
BBX 6 9 0 0
BITMAP
043400
033300
055300
044400
255510
307250
538523
444561
550550
ENDCHAR
STARTCHAR Abreve
ENCODING 258
SWIDTH 507 0
DWIDTH 5 0
BBX 6 10 0 0
BITMAP
152510
046700
034300
055300
044400
255510
307250
538523
444561
550550
ENDCHAR
STARTCHAR abreve
ENCODING 259
SWIDTH 507 0
DWIDTH 5 0
BBX 6 10 0 0
BITMAP
152510
046700
034300
055300
044400
255510
307250
538523
444561
550550
ENDCHAR
STARTCHAR Aogonek
ENCODING 260
SWIDTH 507 0
DWIDTH 5 0
BBX 6 9 0 -2
BITMAP
055300
044400
255510
307250
538523
444561
550560
000560
000343
ENDCHAR
STARTCHAR aogonek
ENCODING 261
SWIDTH 507 0
DWIDTH 5 0
BBX 6 9 0 -2
BITMAP
055300
044400
255510
307250
538523
444561
550560
000560
000343
ENDCHAR
STARTCHAR Cacute
ENCODING 262
SWIDTH 515 0
DWIDTH 5 0
BBX 6 11 0 -1
BITMAP
000420
002420
012300
244650
245551
434000
404000
533000
445451
564541
020000
ENDCHAR
STARTCHAR cacute
ENCODING 263
SWIDTH 515 0
DWIDTH 5 0
BBX 6 11 0 -1
BITMAP
000420
002420
012300
244650
245551
434000
404000
533000
445451
564541
020000
ENDCHAR
STARTCHAR Ccircumflex
ENCODING 264
SWIDTH 515 0
DWIDTH 5 0
BBX 6 11 0 -1
BITMAP
004800
033430
023220
244650
245551
434000
404000
533000
445451
564541
020000
ENDCHAR
STARTCHAR ccircumflex
ENCODING 265
SWIDTH 515 0
DWIDTH 5 0
BBX 6 11 0 -1
BITMAP
004800
033430
023220
244650
245551
434000
404000
533000
445451
564541
020000
ENDCHAR
STARTCHAR Cdotaccent
ENCODING 266
SWIDTH 515 0
DWIDTH 5 0
BBX 6 10 0 -1
BITMAP
005500
012300
244650
245551
434000
404000
533000
445451
564541
020000
ENDCHAR
STARTCHAR cdotaccent
ENCODING 267
SWIDTH 515 0
DWIDTH 5 0
BBX 6 10 0 -1
BITMAP
005500
012300
244650
245551
434000
404000
533000
445451
564541
020000
ENDCHAR
STARTCHAR Ccaron
ENCODING 268
SWIDTH 515 0
DWIDTH 5 0
BBX 6 11 0 -1
BITMAP
044440
004610
012400
244650
245551
434000
404000
533000
445451
564541
020000
ENDCHAR
STARTCHAR ccaron
ENCODING 269
SWIDTH 515 0
DWIDTH 5 0
BBX 6 11 0 -1
BITMAP
044440
004610
012400
244650
245551
434000
404000
533000
445451
564541
020000
ENDCHAR
STARTCHAR Dcaron
ENCODING 270
SWIDTH 520 0
DWIDTH 5 0
BBX 6 11 0 -1
BITMAP
055510
044400
026100
464100
341610
537341
422653
538341
322510
446100
011000
ENDCHAR
STARTCHAR dcaron
ENCODING 271
SWIDTH 520 0
DWIDTH 5 0
BBX 6 11 0 -1
BITMAP
055510
044400
026100
464100
341610
537341
422653
538341
322510
446100
011000
ENDCHAR
STARTCHAR Dcroat
ENCODING 272
SWIDTH 669 0
DWIDTH 7 0
BBX 8 9 -1 -1
BITMAP
00003000
00092400
00054250
03486524
22035266
03486623
00144240
00246400
00002000
ENDCHAR
STARTCHAR dcroat
ENCODING 273
SWIDTH 669 0
DWIDTH 7 0
BBX 8 9 -1 -1
BITMAP
00003000
00092400
00054250
03486524
22035266
03486623
00144240
00246400
00002000
ENDCHAR
STARTCHAR Emacron
ENCODING 274
SWIDTH 490 0
DWIDTH 5 0
BBX 5 9 0 0
BITMAP
043400
033300
447450
316450
536300
422400
536300
327440
446440
ENDCHAR
STARTCHAR emacron
ENCODING 275
SWIDTH 490 0
DWIDTH 5 0
BBX 5 9 0 0
BITMAP
043400
033300
447450
316450
536300
422400
536300
327440
446440
ENDCHAR
STARTCHAR Ebreve
ENCODING 276
SWIDTH 490 0
DWIDTH 5 0
BBX 5 10 0 0
BITMAP
053520
036710
024300
447450
316450
536300
422400
536300
327440
446440
ENDCHAR
STARTCHAR ebreve
ENCODING 277
SWIDTH 490 0
DWIDTH 5 0
BBX 5 10 0 0
BITMAP
053520
036710
024300
447450
316450
536300
422400
536300
327440
446440
ENDCHAR
STARTCHAR Edotaccent
ENCODING 278
SWIDTH 490 0
DWIDTH 5 0
BBX 5 9 0 0
BITMAP
034200
014100
447450
316450
536300
422400
536300
327440
446440
ENDCHAR
STARTCHAR edotaccent
ENCODING 279
SWIDTH 490 0
DWIDTH 5 0
BBX 5 9 0 0
BITMAP
034200
014100
447450
316450
536300
422400
536300
327440
446440
ENDCHAR
STARTCHAR Eogonek
ENCODING 280
SWIDTH 490 0
DWIDTH 5 0
BBX 5 9 0 -2
BITMAP
447450
316450
536300
422400
536300
327440
447440
004520
001540
ENDCHAR
STARTCHAR eogonek
ENCODING 281
SWIDTH 490 0
DWIDTH 5 0
BBX 5 9 0 -2
BITMAP
447450
316450
536300
422400
536300
327440
447440
004520
001540
ENDCHAR
STARTCHAR Ecaron
ENCODING 282
SWIDTH 490 0
DWIDTH 5 0
BBX 5 10 0 0
BITMAP
055520
033500
004100
447450
316450
536300
422400
536300
327440
446440
ENDCHAR
STARTCHAR ecaron
ENCODING 283
SWIDTH 490 0
DWIDTH 5 0
BBX 5 10 0 0
BITMAP
055520
033500
004100
447450
316450
536300
422400
536300
327440
446440
ENDCHAR
STARTCHAR Gcircumflex
ENCODING 284
SWIDTH 557 0
DWIDTH 6 0
BBX 6 11 0 -1
BITMAP
005700
033430
023320
244650
245551
434010
404433
533433
445704
564733
020000
ENDCHAR
STARTCHAR gcircumflex
ENCODING 285
SWIDTH 557 0
DWIDTH 6 0
BBX 6 11 0 -1
BITMAP
005700
033430
023320
244650
245551
434010
404433
533433
445704
564733
020000
ENDCHAR
STARTCHAR Gbreve
ENCODING 286
SWIDTH 557 0
DWIDTH 6 0
BBX 6 11 0 -1
BITMAP
044430
034630
024400
244650
245551
434010
404433
533433
445704
564733
020000
ENDCHAR
STARTCHAR gbreve
ENCODING 287
SWIDTH 557 0
DWIDTH 6 0
BBX 6 11 0 -1
BITMAP
044430
034630
024400
244650
245551
434010
404433
533433
445704
564733
020000
ENDCHAR
STARTCHAR Gdotaccent
ENCODING 288
SWIDTH 557 0
DWIDTH 6 0
BBX 6 10 0 -1
BITMAP
005500
012300
244650
245551
434010
404433
533433
445704
564733
020000
ENDCHAR
STARTCHAR gdotaccent
ENCODING 289
SWIDTH 557 0
DWIDTH 6 0
BBX 6 10 0 -1
BITMAP
005500
012300
244650
245551
434010
404433
533433
445704
564733
020000
ENDCHAR
STARTCHAR Gcommaaccent
ENCODING 290
SWIDTH 557 0
DWIDTH 6 0
BBX 6 11 0 -3
BITMAP
010000
244650
245551
434010
404433
533433
445704
564733
023200
024200
023000
ENDCHAR
STARTCHAR gcommaaccent
ENCODING 291
SWIDTH 557 0
DWIDTH 6 0
BBX 6 11 0 -3
BITMAP
010000
244650
245551
434010
404433
533433
445704
564733
023200
024200
023000
ENDCHAR
STARTCHAR Hcircumflex
ENCODING 292
SWIDTH 611 0
DWIDTH 6 0
BBX 7 10 0 0
BITMAP
00570000
03343000
01332000
44333400
41340400
53343400
42244600
53824510
32662400
44244300
ENDCHAR
STARTCHAR hcircumflex
ENCODING 293
SWIDTH 611 0
DWIDTH 6 0
BBX 7 10 0 0
BITMAP
00570000
03343000
01332000
44333400
41340400
53343400
42244600
53824510
32662400
44244300
ENDCHAR
STARTCHAR Hbar
ENCODING 294
SWIDTH 706 0
DWIDTH 7 0
BBX 7 7 0 0
BITMAP
05505420
44547550
47635450
04406540
06663350
03556400
05505510
ENDCHAR
STARTCHAR hbar
ENCODING 295
SWIDTH 706 0
DWIDTH 7 0
BBX 7 7 0 0
BITMAP
05505420
44547550
47635450
04406540
06663350
03556400
05505510
ENDCHAR
STARTCHAR Itilde
ENCODING 296
SWIDTH 266 0
DWIDTH 3 0
BBX 5 10 -1 0
BITMAP
057440
334610
123400
044300
041300
053300
042200
053300
032200
044200
ENDCHAR
STARTCHAR itilde
ENCODING 297
SWIDTH 266 0
DWIDTH 3 0
BBX 5 10 -1 0
BITMAP
057440
334610
123400
044300
041300
053300
042200
053300
032200
044200
ENDCHAR
STARTCHAR Imacron
ENCODING 298
SWIDTH 266 0
DWIDTH 3 0
BBX 3 9 0 0
BITMAP
5340
3430
4430
4130
5330
4220
5330
3220
4420
ENDCHAR
STARTCHAR imacron
ENCODING 299
SWIDTH 266 0
DWIDTH 3 0
BBX 3 9 0 0
BITMAP
5340
3430
4430
4130
5330
4220
5330
3220
4420
ENDCHAR
STARTCHAR Ibreve
ENCODING 300
SWIDTH 266 0
DWIDTH 3 0
BBX 4 10 -1 0
BITMAP
1525
0466
0443
0443
0413
0533
0422
0533
0322
0442
ENDCHAR
STARTCHAR ibreve
ENCODING 301
SWIDTH 266 0
DWIDTH 3 0
BBX 4 10 -1 0
BITMAP
1525
0466
0443
0443
0413
0533
0422
0533
0322
0442
ENDCHAR
STARTCHAR Iogonek
ENCODING 302
SWIDTH 266 0
DWIDTH 3 0
BBX 3 10 0 -3
BITMAP
4430
4130
5330
4220
5330
3220
5420
4400
5430
0300
ENDCHAR
STARTCHAR iogonek
ENCODING 303
SWIDTH 266 0
DWIDTH 3 0
BBX 3 10 0 -3
BITMAP
4430
4130
5330
4220
5330
3220
5420
4400
5430
0300
ENDCHAR
STARTCHAR Idotaccent
ENCODING 304
SWIDTH 266 0
DWIDTH 3 0
BBX 3 9 0 0
BITMAP
4510
2400
4430
4130
5330
4220
5330
3220
4420
ENDCHAR
STARTCHAR dotlessi
ENCODING 305
SWIDTH 266 0
DWIDTH 3 0
BBX 3 7 0 0
BITMAP
4430
4130
5330
4220
5330
3220
4420
ENDCHAR
STARTCHAR IJ
ENCODING 306
SWIDTH 750 0
DWIDTH 8 0
BBX 8 8 0 -1
BITMAP
44300552
41300431
53300641
42351440
53714642
32263740
44204461
00002200
ENDCHAR
STARTCHAR ij
ENCODING 307
SWIDTH 749 0
DWIDTH 7 0
BBX 8 8 0 -1
BITMAP
44300552
41300431
53300641
42351440
53714642
32263740
44204461
00002200
ENDCHAR
STARTCHAR Jcircumflex
ENCODING 308
SWIDTH 484 0
DWIDTH 5 0
BBX 6 11 -1 -1
BITMAP
000264
000463
000314
000344
000303
000434
043404
143634
035614
004174
000400
ENDCHAR
STARTCHAR jcircumflex
ENCODING 309
SWIDTH 482 0
DWIDTH 5 0
BBX 6 11 -1 -1
BITMAP
000264
000463
000314
000344
000303
000434
043404
143634
035614
004174
000400
ENDCHAR
STARTCHAR Kcommaaccent
ENCODING 310
SWIDTH 541 0
DWIDTH 5 0
BBX 6 10 0 -3
BITMAP
443152
314514
537340
423610
53A440
323440
442441
004200
034200
022000
ENDCHAR
STARTCHAR kcommaaccent
ENCODING 311
SWIDTH 541 0
DWIDTH 5 0
BBX 6 10 0 -3
BITMAP
443152
314514
537340
423610
53A440
323440
442441
004200
034200
022000
ENDCHAR
STARTCHAR kgreenlandic
ENCODING 312
SWIDTH 541 0
DWIDTH 5 0
BBX 6 7 0 0
BITMAP
443152
314514
537340
423610
53A440
323440
442441
ENDCHAR
STARTCHAR Lacute
ENCODING 313
SWIDTH 467 0
DWIDTH 5 0
BBX 5 10 0 0
BITMAP
004100
044100
032000
443000
413000
533000
422000
533000
327340
447450
ENDCHAR
STARTCHAR lacute
ENCODING 314
SWIDTH 467 0
DWIDTH 5 0
BBX 5 10 0 0
BITMAP
004100
044100
032000
443000
413000
533000
422000
533000
327340
447450
ENDCHAR
STARTCHAR Lcommaaccent
ENCODING 315
SWIDTH 467 0
DWIDTH 5 0
BBX 5 10 0 -3
BITMAP
443000
413000
533000
422000
533000
327340
447450
014000
044000
041000
ENDCHAR
STARTCHAR lcommaaccent
ENCODING 316
SWIDTH 467 0
DWIDTH 5 0
BBX 5 10 0 -3
BITMAP
443000
413000
533000
422000
533000
327340
447450
014000
044000
041000
ENDCHAR
STARTCHAR Lcaron
ENCODING 317
SWIDTH 467 0
DWIDTH 5 0
BBX 5 8 0 0
BITMAP
000530
447410
413100
533000
422000
533000
327340
447450
ENDCHAR
STARTCHAR lcaron
ENCODING 318
SWIDTH 467 0
DWIDTH 5 0
BBX 5 8 0 0
BITMAP
000530
447410
413100
533000
422000
533000
327340
447450
ENDCHAR
STARTCHAR Ldot
ENCODING 319
SWIDTH 611 0
DWIDTH 6 0
BBX 6 7 0 0
BITMAP
443000
413000
533033
422044
533011
327340
447450
ENDCHAR
STARTCHAR ldotaccent
ENCODING 320
SWIDTH 611 0
DWIDTH 6 0
BBX 6 7 0 0
BITMAP
443000
413000
533033
422044
533011
327340
447450
ENDCHAR
STARTCHAR Lslash
ENCODING 321
SWIDTH 505 0
DWIDTH 5 0
BBX 7 7 -1 0
BITMAP
01540000
00330000
03553000
15355000
06540000
02265510
03464510
ENDCHAR
STARTCHAR lslash
ENCODING 322
SWIDTH 505 0
DWIDTH 5 0
BBX 7 7 -1 0
BITMAP
01540000
00330000
03553000
15355000
06540000
02265510
03464510
ENDCHAR
STARTCHAR Nacute
ENCODING 323
SWIDTH 598 0
DWIDTH 6 0
BBX 6 10 0 0
BITMAP
000320
002430
001300
447254
416323
535844
425524
538364
423344
542574
ENDCHAR
STARTCHAR nacute
ENCODING 324
SWIDTH 598 0
DWIDTH 6 0
BBX 6 10 0 0
BITMAP
000320
002430
001300
447254
416323
535844
425524
538364
423344
542574
ENDCHAR
STARTCHAR Ncommaaccent
ENCODING 325
SWIDTH 598 0
DWIDTH 6 0
BBX 6 10 0 -3
BITMAP
447254
416323
535844
425524
538364
423344
542574
003200
014300
013000
ENDCHAR
STARTCHAR ncommaaccent
ENCODING 326
SWIDTH 598 0
DWIDTH 6 0
BBX 6 10 0 -3
BITMAP
447254
416323
535844
425524
538364
423344
542574
003200
014300
013000
ENDCHAR
STARTCHAR Ncaron
ENCODING 327
SWIDTH 598 0
DWIDTH 6 0
BBX 6 10 0 0
BITMAP
035440
004620
002400
447254
416323
535844
425524
538364
423344
542574
ENDCHAR
STARTCHAR ncaron
ENCODING 328
SWIDTH 598 0
DWIDTH 6 0
BBX 6 10 0 0
BITMAP
035440
004620
002400
447254
416323
535844
425524
538364
423344
542574
ENDCHAR
STARTCHAR napostrophe
ENCODING 329
SWIDTH 807 0
DWIDTH 8 0
BBX 8 7 0 0
BITMAP
35447155
53406233
10536654
00406334
00538354
00404435
00433475
ENDCHAR
STARTCHAR Eng
ENCODING 330
SWIDTH 595 0
DWIDTH 6 0
BBX 6 10 0 -3
BITMAP
447154
416324
536754
415514
539344
413354
543544
034654
040551
033100
ENDCHAR
STARTCHAR eng
ENCODING 331
SWIDTH 595 0
DWIDTH 6 0
BBX 6 10 0 -3
BITMAP
447154
416324
536754
415514
539344
413354
543544
034654
040551
033100
ENDCHAR
STARTCHAR Omacron
ENCODING 332
SWIDTH 612 0
DWIDTH 6 0
BBX 6 10 0 -1
BITMAP
014330
014320
244663
245554
434344
404134
533065
444648
564557
020000
ENDCHAR
STARTCHAR omacron
ENCODING 333
SWIDTH 612 0
DWIDTH 6 0
BBX 6 10 0 -1
BITMAP
014330
014320
244663
245554
434344
404134
533065
444648
564557
020000
ENDCHAR
STARTCHAR Obreve
ENCODING 334
SWIDTH 612 0
DWIDTH 6 0
BBX 6 11 0 -1
BITMAP
034340
034550
014410
244663
245554
434344
404134
533065
444648
564557
020000
ENDCHAR
STARTCHAR obreve
ENCODING 335
SWIDTH 612 0
DWIDTH 6 0
BBX 6 11 0 -1
BITMAP
034340
034550
014410
244663
245554
434344
404134
533065
444648
564557
020000
ENDCHAR
STARTCHAR Ohungarumlaut
ENCODING 336
SWIDTH 612 0
DWIDTH 6 0
BBX 6 11 0 -1
BITMAP
002432
004643
014230
244663
245554
434344
404134
533065
444648
564557
020000
ENDCHAR
STARTCHAR ohungarumlaut
ENCODING 337
SWIDTH 612 0
DWIDTH 6 0
BBX 6 11 0 -1
BITMAP
002432
004643
014230
244663
245554
434344
404134
533065
444648
564557
020000
ENDCHAR
STARTCHAR OE
ENCODING 338
SWIDTH 831 0
DWIDTH 8 0
BBX 9 9 0 -1
BITMAP
0100000000
2446866420
2455565420
4342563100
4041340400
5332554100
4455666510
5645865510
0200000000
ENDCHAR
STARTCHAR oe
ENCODING 339
SWIDTH 831 0
DWIDTH 8 0
BBX 9 9 0 -1
BITMAP
0100000000
2446866420
2455565420
4342563100
4041340400
5332554100
4455666510
5645865510
0200000000
ENDCHAR
STARTCHAR Racute
ENCODING 340
SWIDTH 532 0
DWIDTH 5 0
BBX 6 11 0 -1
BITMAP
000420
003420
022200
444500
454333
535661
429540
538240
423631
423433
120010
ENDCHAR
STARTCHAR racute
ENCODING 341
SWIDTH 532 0
DWIDTH 5 0
BBX 6 11 0 -1
BITMAP
000420
003420
022200
444500
454333
535661
429540
538240
423631
423433
120010
ENDCHAR
STARTCHAR Rcommaaccent
ENCODING 342
SWIDTH 532 0
DWIDTH 5 0
BBX 6 11 0 -3
BITMAP
020000
444500
454333
535661
429540
538240
423631
423433
124110
034100
022000
ENDCHAR
STARTCHAR rcommaaccent
ENCODING 343
SWIDTH 532 0
DWIDTH 5 0
BBX 6 11 0 -3
BITMAP
020000
444500
454333
535661
429540
538240
423631
423433
124110
034100
022000
ENDCHAR
STARTCHAR Rcaron
ENCODING 344
SWIDTH 532 0
DWIDTH 5 0
BBX 6 11 0 -1
BITMAP
054530
033600
024200
444500
454333
535661
429540
538240
423631
423433
120010
ENDCHAR
STARTCHAR rcaron
ENCODING 345
SWIDTH 532 0
DWIDTH 5 0
BBX 6 11 0 -1
BITMAP
054530
033600
024200
444500
454333
535661
429540
538240
423631
423433
120010
ENDCHAR
STARTCHAR Sacute
ENCODING 346
SWIDTH 442 0
DWIDTH 4 0
BBX 5 11 0 -1
BITMAP
003200
024300
023100
576330
535410
334000
052200
025400
447130
547510
100000
ENDCHAR
STARTCHAR sacute
ENCODING 347
SWIDTH 442 0
DWIDTH 4 0
BBX 5 11 0 -1
BITMAP
003200
024300
023100
576330
535410
334000
052200
025400
447130
547510
100000
ENDCHAR
STARTCHAR Scircumflex
ENCODING 348
SWIDTH 442 0
DWIDTH 4 0
BBX 5 11 0 -1
BITMAP
047100
235300
132400
576330
535410
334000
052200
025400
447130
547510
100000
ENDCHAR
STARTCHAR scircumflex
ENCODING 349
SWIDTH 442 0
DWIDTH 4 0
BBX 5 11 0 -1
BITMAP
047100
235300
132400
576330
535410
334000
052200
025400
447130
547510
100000
ENDCHAR
STARTCHAR Scedilla
ENCODING 350
SWIDTH 442 0
DWIDTH 4 0
BBX 5 10 0 -2
BITMAP
000100
576330
535410
334000
052200
025400
447130
547610
135300
155000
ENDCHAR
STARTCHAR scedilla
ENCODING 351
SWIDTH 442 0
DWIDTH 4 0
BBX 5 10 0 -2
BITMAP
000100
576330
535410
334000
052200
025400
447130
547610
135300
155000
ENDCHAR
STARTCHAR Scaron
ENCODING 352
SWIDTH 442 0
DWIDTH 4 0
BBX 5 11 0 -1
BITMAP
355500
046200
024100
576330
535410
334000
052200
025400
447130
547510
100000
ENDCHAR
STARTCHAR scaron
ENCODING 353
SWIDTH 442 0
DWIDTH 4 0
BBX 5 11 0 -1
BITMAP
355500
046200
024100
576330
535410
334000
052200
025400
447130
547510
100000
ENDCHAR
STARTCHAR Tcommaaccent
ENCODING 354
SWIDTH 453 0
DWIDTH 5 0
BBX 5 10 0 -3
BITMAP
536440
555430
053300
042100
054300
042100
054200
033000
143000
140000
ENDCHAR
STARTCHAR tcommaaccent
ENCODING 355
SWIDTH 453 0
DWIDTH 5 0
BBX 5 10 0 -3
BITMAP
536440
555430
053300
042100
054300
042100
054200
033000
143000
140000
ENDCHAR
STARTCHAR Tcaron
ENCODING 356
SWIDTH 453 0
DWIDTH 5 0
BBX 5 10 0 0
BITMAP
156500
045300
015000
536440
555430
053300
042100
054300
042100
054200
ENDCHAR
STARTCHAR tcaron
ENCODING 357
SWIDTH 453 0
DWIDTH 5 0
BBX 5 10 0 0
BITMAP
156500
045300
015000
536440
555430
053300
042100
054300
042100
054200
ENDCHAR
STARTCHAR Tbar
ENCODING 358
SWIDTH 455 0
DWIDTH 5 0
BBX 5 8 0 -1
BITMAP
546440
545430
053300
343500
354500
042100
053200
001000
ENDCHAR
STARTCHAR tbar
ENCODING 359
SWIDTH 455 0
DWIDTH 5 0
BBX 5 8 0 -1
BITMAP
546440
545430
053300
343500
354500
042100
053200
001000
ENDCHAR
STARTCHAR Utilde
ENCODING 360
SWIDTH 583 0
DWIDTH 6 0
BBX 6 11 0 -1
BITMAP
005753
044460
022330
344443
403313
534534
412304
542444
446455
555585
030000
ENDCHAR
STARTCHAR utilde
ENCODING 361
SWIDTH 583 0
DWIDTH 6 0
BBX 6 11 0 -1
BITMAP
005753
044460
022330
344443
403313
534534
412304
542444
446455
555585
030000
ENDCHAR
STARTCHAR Umacron
ENCODING 362
SWIDTH 583 0
DWIDTH 6 0
BBX 6 10 0 -1
BITMAP
024320
013310
344443
403313
534534
412304
542444
446455
555585
030000
ENDCHAR
STARTCHAR umacron
ENCODING 363
SWIDTH 583 0
DWIDTH 6 0
BBX 6 10 0 -1
BITMAP
024320
013310
344443
403313
534534
412304
542444
446455
555585
030000
ENDCHAR
STARTCHAR Ubreve
ENCODING 364
SWIDTH 583 0
DWIDTH 6 0
BBX 6 11 0 -1
BITMAP
043430
035630
014400
344443
403313
534534
412304
542444
446455
555585
030000
ENDCHAR
STARTCHAR ubreve
ENCODING 365
SWIDTH 583 0
DWIDTH 6 0
BBX 6 11 0 -1
BITMAP
043430
035630
014400
344443
403313
534534
412304
542444
446455
555585
030000
ENDCHAR
STARTCHAR Uring
ENCODING 366
SWIDTH 583 0
DWIDTH 6 0
BBX 6 12 0 -1
BITMAP
003300
033520
044540
013410
344443
403313
534534
412304
542444
446455
555585
030000
ENDCHAR
STARTCHAR uring
ENCODING 367
SWIDTH 583 0
DWIDTH 6 0
BBX 6 12 0 -1
BITMAP
003300
033520
044540
013410
344443
403313
534534
412304
542444
446455
555585
030000
ENDCHAR
STARTCHAR Uhungarumlaut
ENCODING 368
SWIDTH 583 0
DWIDTH 6 0
BBX 6 11 0 -1
BITMAP
003351
024741
013320
344443
403313
534534
412304
542444
446455
555585
030000
ENDCHAR
STARTCHAR uhungarumlaut
ENCODING 369
SWIDTH 583 0
DWIDTH 6 0
BBX 6 11 0 -1
BITMAP
003351
024741
013320
344443
403313
534534
412304
542444
446455
555585
030000
ENDCHAR
STARTCHAR Uogonek
ENCODING 370
SWIDTH 583 0
DWIDTH 6 0
BBX 6 10 0 -3
BITMAP
344443
403313
534534
412304
542444
446455
555585
030450
000354
000021
ENDCHAR
STARTCHAR uogonek
ENCODING 371
SWIDTH 583 0
DWIDTH 6 0
BBX 6 10 0 -3
BITMAP
344443
403313
534534
412304
542444
446455
555585
030450
000354
000021
ENDCHAR
STARTCHAR Wcircumflex
ENCODING 372
SWIDTH 735 0
DWIDTH 7 0
BBX 8 10 0 -1
BITMAP
00165000
00463100
44346441
44233431
53765650
40732340
25667440
04337040
06546230
01100200
ENDCHAR
STARTCHAR wcircumflex
ENCODING 373
SWIDTH 735 0
DWIDTH 7 0
BBX 8 10 0 -1
BITMAP
00165000
00463100
44346441
44233431
53765650
40732340
25667440
04337040
06546230
01100200
ENDCHAR
STARTCHAR Ycircumflex
ENCODING 374
SWIDTH 484 0
DWIDTH 5 0
BBX 6 10 -1 0
BITMAP
003720
014630
004130
043045
133334
034634
004440
004440
004310
005500
ENDCHAR
STARTCHAR ycircumflex
ENCODING 375
SWIDTH 484 0
DWIDTH 5 0
BBX 6 10 -1 0
BITMAP
003720
014630
004130
043045
133334
034634
004440
004440
004310
005500
ENDCHAR
STARTCHAR Ydieresis
ENCODING 376
SWIDTH 484 0
DWIDTH 5 0
BBX 6 9 -1 0
BITMAP
024751
014230
043045
133334
034634
004440
004440
004310
005500
ENDCHAR
STARTCHAR Zacute
ENCODING 377
SWIDTH 458 0
DWIDTH 5 0
BBX 5 10 0 0
BITMAP
002300
004400
004000
336430
346460
025500
051300
345000
427420
565420
ENDCHAR
STARTCHAR zacute
ENCODING 378
SWIDTH 458 0
DWIDTH 5 0
BBX 5 10 0 0
BITMAP
002300
004400
004000
336430
346460
025500
051300
345000
427420
565420
ENDCHAR
STARTCHAR Zdotaccent
ENCODING 379
SWIDTH 458 0
DWIDTH 5 0
BBX 5 9 0 0
BITMAP
045100
014000
336430
346460
025500
051300
345000
427420
565420
ENDCHAR
STARTCHAR zdotaccent
ENCODING 380
SWIDTH 458 0
DWIDTH 5 0
BBX 5 9 0 0
BITMAP
045100
014000
336430
346460
025500
051300
345000
427420
565420
ENDCHAR
STARTCHAR Zcaron
ENCODING 381
SWIDTH 458 0
DWIDTH 5 0
BBX 5 10 0 0
BITMAP
155500
045300
014000
336430
346460
025500
051300
345000
427420
565420
ENDCHAR
STARTCHAR zcaron
ENCODING 382
SWIDTH 458 0
DWIDTH 5 0
BBX 5 10 0 0
BITMAP
155500
045300
014000
336430
346460
025500
051300
345000
427420
565420
ENDCHAR
STARTCHAR AEacute
ENCODING 508
SWIDTH 797 0
DWIDTH 8 0
BBX 9 10 -1 0
BITMAP
0000033000
0000143000
0000140000
0003647550
0004326450
0044836300
0043503400
0445636400
1434618440
1450447450
ENDCHAR
STARTCHAR aeacute
ENCODING 509
SWIDTH 797 0
DWIDTH 8 0
BBX 9 10 -1 0
BITMAP
0000033000
0000143000
0000140000
0003647550
0004326450
0044836300
0043503400
0445636400
1434618440
1450447450
ENDCHAR
STARTCHAR Oslashacute
ENCODING 510
SWIDTH 612 0
DWIDTH 6 0
BBX 6 11 0 -1
BITMAP
000330
001430
011300
244653
245615
436554
407234
565465
443648
606557
041000
ENDCHAR
STARTCHAR oslashacute
ENCODING 511
SWIDTH 612 0
DWIDTH 6 0
BBX 6 11 0 -1
BITMAP
000330
001430
011300
244653
245615
436554
407234
565465
443648
606557
041000
ENDCHAR
STARTCHAR dotlessj
ENCODING 567
SWIDTH 482 0
DWIDTH 5 0
BBX 6 8 -1 -1
BITMAP
000344
000303
000434
043404
143634
035614
004174
000400
ENDCHAR
STARTCHAR circumflex
ENCODING 710
SWIDTH 308 0
DWIDTH 3 0
BBX 3 3 0 7
BITMAP
3630
4630
3140
ENDCHAR
STARTCHAR caron
ENCODING 711
SWIDTH 310 0
DWIDTH 3 0
BBX 3 3 0 7
BITMAP
5650
4440
1410
ENDCHAR
STARTCHAR breve
ENCODING 728
SWIDTH 333 0
DWIDTH 3 0
BBX 4 3 0 7
BITMAP
5352
3670
2430
ENDCHAR
STARTCHAR dotaccent
ENCODING 729
SWIDTH 166 0
DWIDTH 2 0
BBX 2 2 0 7
BITMAP
54
32
ENDCHAR
STARTCHAR ring
ENCODING 730
SWIDTH 309 0
DWIDTH 3 0
BBX 3 4 0 7
BITMAP
1320
4530
5560
2330
ENDCHAR
STARTCHAR ogonek
ENCODING 731
SWIDTH 226 0
DWIDTH 2 0
BBX 3 4 0 -3
BITMAP
3400
4400
6420
0300
ENDCHAR
STARTCHAR tilde
ENCODING 732
SWIDTH 410 0
DWIDTH 4 0
BBX 4 3 0 7
BITMAP
3665
4644
3151
ENDCHAR
STARTCHAR hungarumlaut
ENCODING 733
SWIDTH 361 0
DWIDTH 4 0
BBX 4 3 0 7
BITMAP
1432
4643
4230
ENDCHAR
STARTCHAR uni0312
ENCODING 786
SWIDTH 202 0
DWIDTH 2 0
BBX 2 3 0 4
BITMAP
35
53
10
ENDCHAR
STARTCHAR uni0315
ENCODING 789
SWIDTH 202 0
DWIDTH 2 0
BBX 2 3 0 4
BITMAP
35
53
10
ENDCHAR
STARTCHAR uni0326
ENCODING 806
SWIDTH 201 0
DWIDTH 2 0
BBX 2 3 0 -3
BITMAP
14
44
41
ENDCHAR
STARTCHAR Wgrave
ENCODING 7808
SWIDTH 735 0
DWIDTH 7 0
BBX 8 10 0 -1
BITMAP
00340000
00241000
44072441
44233431
53765650
40732340
25667440
04337040
06546230
01100200
ENDCHAR
STARTCHAR wgrave
ENCODING 7809
SWIDTH 735 0
DWIDTH 7 0
BBX 8 10 0 -1
BITMAP
00340000
00241000
44072441
44233431
53765650
40732340
25667440
04337040
06546230
01100200
ENDCHAR
STARTCHAR Wacute
ENCODING 7810
SWIDTH 735 0
DWIDTH 7 0
BBX 8 10 0 -1
BITMAP
00004100
00044100
44064441
44233431
53765650
40732340
25667440
04337040
06546230
01100200
ENDCHAR
STARTCHAR wacute
ENCODING 7811
SWIDTH 735 0
DWIDTH 7 0
BBX 8 10 0 -1
BITMAP
00004100
00044100
44064441
44233431
53765650
40732340
25667440
04337040
06546230
01100200
ENDCHAR
STARTCHAR Wdieresis
ENCODING 7812
SWIDTH 735 0
DWIDTH 7 0
BBX 8 9 0 -1
BITMAP
00554400
44355541
44233431
53765650
40732340
25667440
04337040
06546230
01100200
ENDCHAR
STARTCHAR wdieresis
ENCODING 7813
SWIDTH 735 0
DWIDTH 7 0
BBX 8 9 0 -1
BITMAP
00554400
44355541
44233431
53765650
40732340
25667440
04337040
06546230
01100200
ENDCHAR
STARTCHAR Ygrave
ENCODING 7922
SWIDTH 484 0
DWIDTH 5 0
BBX 6 9 -1 0
BITMAP
004300
004400
044445
133334
034634
004440
004440
004310
005500
ENDCHAR
STARTCHAR ygrave
ENCODING 7923
SWIDTH 484 0
DWIDTH 5 0
BBX 6 9 -1 0
BITMAP
004300
004400
044445
133334
034634
004440
004440
004310
005500
ENDCHAR
STARTCHAR endash
ENCODING 8211
SWIDTH 591 0
DWIDTH 6 0
BBX 6 3 0 2
BITMAP
233311
414424
334443
ENDCHAR
STARTCHAR emdash
ENCODING 8212
SWIDTH 726 0
DWIDTH 7 0
BBX 7 3 0 2
BITMAP
22212110
41425350
33444440
ENDCHAR
STARTCHAR quoteleft
ENCODING 8216
SWIDTH 291 0
DWIDTH 3 0
BBX 3 5 0 3
BITMAP
0320
0440
4340
4310
4400
ENDCHAR
STARTCHAR quoteright
ENCODING 8217
SWIDTH 291 0
DWIDTH 3 0
BBX 3 5 0 3
BITMAP
0320
0440
4340
4310
4400
ENDCHAR
STARTCHAR quotesinglbase
ENCODING 8218
SWIDTH 228 0
DWIDTH 2 0
BBX 4 4 -1 -2
BITMAP
0130
0441
3140
0300
ENDCHAR
STARTCHAR quotedblleft
ENCODING 8220
SWIDTH 532 0
DWIDTH 5 0
BBX 6 5 0 3
BITMAP
032130
044422
434650
435040
442420
ENDCHAR
STARTCHAR quotedblright
ENCODING 8221
SWIDTH 532 0
DWIDTH 5 0
BBX 6 5 0 3
BITMAP
032130
044422
434650
435040
442420
ENDCHAR
STARTCHAR quotedblbase
ENCODING 8222
SWIDTH 448 0
DWIDTH 4 0
BBX 6 4 -1 -2
BITMAP
013030
044523
314440
030210
ENDCHAR
STARTCHAR dagger
ENCODING 8224
SWIDTH 453 0
DWIDTH 5 0
BBX 5 9 0 -1
BITMAP
034100
141300
462530
463520
042100
054300
043100
042200
034000
ENDCHAR
STARTCHAR daggerdbl
ENCODING 8225
SWIDTH 462 0
DWIDTH 5 0
BBX 5 9 0 -1
BITMAP
034100
140300
462630
462620
042200
373620
452440
151400
024000
ENDCHAR
STARTCHAR bullet
ENCODING 8226
SWIDTH 275 0
DWIDTH 3 0
BBX 3 3 0 2
BITMAP
1300
4410
0100
ENDCHAR
STARTCHAR ellipsis
ENCODING 8230
SWIDTH 605 0
DWIDTH 6 0
BBX 6 3 0 -1
BITMAP
333333
444444
111111
ENDCHAR
STARTCHAR perthousand
ENCODING 8240
SWIDTH 1249 0
DWIDTH 12 0
BBX 13 7 0 0
BITMAP
44423300000000
34533300000000
44335300000000
53652653364410
00044344335420
00033353354320
00033435453610
ENDCHAR
STARTCHAR guilsinglleft
ENCODING 8249
SWIDTH 359 0
DWIDTH 4 0
BBX 4 5 0 1
BITMAP
0241
3232
6530
3332
0140
ENDCHAR
STARTCHAR guilsinglright
ENCODING 8250
SWIDTH 359 0
DWIDTH 4 0
BBX 4 5 0 1
BITMAP
3400
4132
0544
4141
2400
ENDCHAR
STARTCHAR fraction
ENCODING 8260
SWIDTH 266 0
DWIDTH 3 0
BBX 3 7 0 0
BITMAP
0330
0330
2330
3300
4400
3300
4300
ENDCHAR
STARTCHAR Euro
ENCODING 8364
SWIDTH 690 0
DWIDTH 7 0
BBX 7 9 0 -1
BITMAP
00100000
00546430
02655440
14750000
37440000
42540000
26066340
02665430
00200000
ENDCHAR
STARTCHAR partialdiff
ENCODING 8706
SWIDTH 519 0
DWIDTH 5 0
BBX 7 8 -1 -1
BITMAP
00055000
00044000
00064400
01640400
14664500
07144400
01436410
00011000
ENDCHAR
STARTCHAR minus
ENCODING 8722
SWIDTH 467 0
DWIDTH 5 0
BBX 5 3 0 2
BITMAP
223200
414240
334420
ENDCHAR
STARTCHAR fi
ENCODING 64257
SWIDTH 741 0
DWIDTH 7 0
BBX 7 7 0 0
BITMAP
44745550
31645430
53630660
42240440
53630650
32200340
44200550
ENDCHAR
STARTCHAR fl
ENCODING 64258
SWIDTH 942 0
DWIDTH 9 0
BBX 10 7 0 0
BITMAP
4474555000
3164543000
5363066000
4224044000
5363065000
3220034633
4420056544
ENDCHAR
STARTCHAR .notdef
ENCODING -1
SWIDTH 200 0
DWIDTH 2 0
BBX 1 1 0 0
BITMAP
00
ENDCHAR
STARTCHAR .null
ENCODING -1
SWIDTH 0 0
DWIDTH 0 0
BBX 1 1 0 0
BITMAP
00
ENDCHAR
STARTCHAR nonmarkingreturn
ENCODING -1
SWIDTH 200 0
DWIDTH 2 0
BBX 1 1 0 0
BITMAP
00
ENDCHAR
ENDFONT
